<svg width="71" height="62" viewBox="0 0 71 62" fill="none" xmlns="http://www.w3.org/2000/svg">
<path d="M5.12749 25.1233H17.0732V56.9732H5.12749C4.45909 56.9732 3.81807 56.7076 3.34545 56.234C2.87282 55.7608 2.6073 55.1187 2.6073 54.4497V27.6471C2.6073 26.9777 2.87282 26.3358 3.34545 25.8625C3.81807 25.3892 4.45909 25.1233 5.12749 25.1233Z" stroke="#2BD0F1" stroke-width="4" stroke-linecap="round" stroke-linejoin="round"/>
<path d="M17.0735 25.1214L29.876 4.62836C30.3722 3.81839 31.0694 3.15088 31.8997 2.6909C32.73 2.23092 33.6652 1.99418 34.614 2.00365C35.3613 1.97663 36.1064 2.09991 36.8053 2.3662C37.5042 2.63249 38.1427 3.03636 38.6831 3.55398C39.2235 4.07161 39.6547 4.69241 39.9514 5.37982C40.2481 6.06717 40.4042 6.80713 40.4104 7.55594V22.2443H62.5378C63.3552 22.2708 64.158 22.4704 64.8931 22.8299C65.6283 23.1893 66.2791 23.7005 66.8029 24.3298C67.3267 24.9592 67.7113 25.6924 67.9318 26.4813C68.1523 27.2702 68.2036 28.0969 68.0822 28.907L64.0497 54.9524C63.878 56.3444 63.2038 57.6255 62.1552 58.555C61.1066 59.4845 59.7547 59.9984 58.354 59.9999H25.2893C23.7153 60.006 22.1617 59.6433 20.7529 58.9396L17.1239 57.1228" stroke="#2BD0F1" stroke-width="4" stroke-linecap="round" stroke-linejoin="round"/>
<path d="M17.0735 25.1221V56.9722" stroke="#2BD0F1" stroke-width="4" stroke-linecap="round" stroke-linejoin="round"/>
</svg>
