<svg width="25" height="24" viewBox="0 0 25 24" fill="none" xmlns="http://www.w3.org/2000/svg">
<ellipse cx="12.7692" cy="12" rx="12.0923" ry="12" fill="#D4D4D4"/>
<path d="M6.72305 18C8.32659 19.5913 10.5015 20.4853 12.7692 20.4853C15.037 20.4853 17.2118 19.5913 18.8154 18C20.4189 16.4087 21.3198 14.2504 21.3198 12C21.3198 9.74956 20.4189 7.5913 18.8154 6C17.2118 4.4087 15.037 3.51472 12.7692 3.51472C10.5015 3.51472 8.32659 4.4087 6.72305 6C5.11951 7.5913 4.21865 9.74956 4.21865 12C4.21865 14.2504 5.11951 16.4087 6.72305 18ZM13.3035 15.6743C13.3048 15.7447 13.2919 15.8146 13.2656 15.88C13.2393 15.9454 13.2001 16.005 13.1504 16.0552C13.1006 16.1054 13.0413 16.1453 12.9759 16.1725C12.9104 16.1998 12.8402 16.2138 12.7692 16.2138C12.6982 16.2138 12.628 16.1998 12.5625 16.1725C12.4971 16.1453 12.4378 16.1054 12.388 16.0552C12.3383 16.005 12.2991 15.9454 12.2728 15.88C12.2466 15.8146 12.2336 15.7447 12.2349 15.6743V9.53025L10.1429 11.6063C10.0427 11.7057 9.90675 11.7616 9.76502 11.7616C9.62329 11.7616 9.48736 11.7057 9.38714 11.6063C9.28691 11.5068 9.23061 11.3719 9.23061 11.2312C9.23061 11.0906 9.28691 10.9557 9.38714 10.8563L12.3913 7.875C12.4915 7.77554 12.6275 7.71967 12.7692 7.71967C12.9109 7.71967 13.0469 7.77554 13.1471 7.875L16.1513 10.8562C16.2515 10.9557 16.3078 11.0906 16.3078 11.2313C16.3078 11.3719 16.2515 11.5068 16.1513 11.6062C16.051 11.7057 15.9151 11.7616 15.7734 11.7616C15.6317 11.7616 15.4957 11.7057 15.3955 11.6062L13.3035 9.53025L13.3035 15.6743Z" fill="#7117EA"/>
</svg>
